<svg width="30" height="35" viewBox="0 0 30 35" fill="none" xmlns="http://www.w3.org/2000/svg">
<path d="M24.6793 18.2214C24.663 15.4468 25.9201 13.3556 28.4588 11.8136C27.0389 9.77943 24.8908 8.6606 22.0592 8.44498C19.3781 8.23342 16.4447 10.0073 15.3707 10.0073C14.2356 10.0073 11.6399 8.51821 9.59756 8.51821C5.38267 8.58331 0.90332 11.8787 0.90332 18.5835C0.90332 20.5648 1.26541 22.6113 1.98959 24.7187C2.95788 27.4934 6.4486 34.2917 10.0898 34.1819C11.9939 34.1371 13.3405 32.8312 15.8182 32.8312C18.2226 32.8312 19.4676 34.1819 21.5913 34.1819C25.2651 34.129 28.4222 27.9491 29.3417 25.1662C24.4148 22.8432 24.6793 18.3638 24.6793 18.2214ZM20.4033 5.8127C22.466 3.3635 22.2789 1.134 22.2178 0.33252C20.3952 0.438299 18.2877 1.57339 17.0876 2.96887C15.7653 4.46605 14.9882 6.31719 15.155 8.40429C17.1242 8.55483 18.9224 7.54179 20.4033 5.8127Z" fill="black"/>
</svg>
