<svg width="36" height="36" viewBox="0 0 36 36" fill="none" xmlns="http://www.w3.org/2000/svg">
<path d="M35.021 14.8582H33.6228V14.7862H18V21.7296H27.8103C26.379 25.7716 22.5332 28.6731 18 28.6731C12.2482 28.6731 7.58482 24.0097 7.58482 18.2579C7.58482 12.5061 12.2482 7.84269 18 7.84269C20.655 7.84269 23.0705 8.84429 24.9096 10.4803L29.8195 5.57044C26.7193 2.6811 22.5723 0.899231 18 0.899231C8.41369 0.899231 0.641357 8.67157 0.641357 18.2579C0.641357 27.8442 8.41369 35.6165 18 35.6165C27.5863 35.6165 35.3587 27.8442 35.3587 18.2579C35.3587 17.094 35.2389 15.9579 35.021 14.8582Z" fill="#FFC107"/>
<path d="M2.64258 10.1783L8.34576 14.3609C9.88895 10.5402 13.6263 7.84269 17.9998 7.84269C20.6548 7.84269 23.0702 8.84429 24.9094 10.4803L29.8193 5.57045C26.719 2.6811 22.572 0.899231 17.9998 0.899231C11.3323 0.899231 5.55015 4.66346 2.64258 10.1783Z" fill="#FF3D00"/>
<path d="M17.9998 35.6165C22.4835 35.6165 26.5576 33.9006 29.6379 31.1102L24.2654 26.564C22.4641 27.9339 20.2629 28.6749 17.9998 28.6731C13.4848 28.6731 9.65116 25.7941 8.20692 21.7765L2.54626 26.1378C5.41912 31.7594 11.2534 35.6165 17.9998 35.6165Z" fill="#4CAF50"/>
<path d="M35.0209 14.8582H33.6227V14.7861H17.9999V21.7296H27.8101C27.1255 23.6533 25.8923 25.3343 24.2629 26.5648L24.2655 26.5631L29.638 31.1093C29.2578 31.4548 35.3585 26.9372 35.3585 18.2579C35.3585 17.094 35.2388 15.9578 35.0209 14.8582Z" fill="#1976D2"/>
</svg>
